HIERARCHY
ROOT Hips
{
  OFFSET 184.571 101.689 6.99006
  CHANNELS 6 Xposition Yposition Zposition Zrotation Xrotation Yrotation
  JOINT Spine
  {
    OFFSET 0 6.79576 0
    CHANNELS 6 Xposition Yposition Zposition Zrotation Xrotation Yrotation
    JOINT Spine1
    {
      OFFSET 0 6.79575 0
      CHANNELS 6 Xposition Yposition Zposition Zrotation Xrotation Yrotation
      JOINT Spine2
      {
        OFFSET 0 6.79575 0
        CHANNELS 6 Xposition Yposition Zposition Zrotation Xrotation Yrotation
        JOINT Spine3
        {
          OFFSET 0 6.79575 0
          CHANNELS 6 Xposition Yposition Zposition Zrotation Xrotation Yrotation
          JOINT Neck
          {
            OFFSET -9.25391e-05 14.441 -0.000277691
            CHANNELS 6 Xposition Yposition Zposition Zrotation Xrotation Yrotation
            JOINT Head
            {
              OFFSET 0 9.17427 0
              CHANNELS 6 Xposition Yposition Zposition Zrotation Xrotation Yrotation
              End Site
              {
                OFFSET 0 17.2017 0
              }
            }
          }
          JOINT LeftShoulder
          {
            OFFSET 4.99989 17 -0.000516942
            CHANNELS 6 Xposition Yposition Zposition Zrotation Xrotation Yrotation
            JOINT LeftShoulder2
            {
              OFFSET 6.5 0 0
              CHANNELS 6 Xposition Yposition Zposition Zrotation Xrotation Yrotation
              JOINT LeftArm
              {
                OFFSET 6.5 -1.26295e-05 0.000212689
                CHANNELS 6 Xposition Yposition Zposition Zrotation Xrotation Yrotation
                JOINT LeftForeArm
                {
                  OFFSET -2.87388e-05 -37.9535 -2
                  CHANNELS 6 Xposition Yposition Zposition Zrotation Xrotation Yrotation
                  JOINT LeftHand
                  {
                    OFFSET 0 -30.0465 2
                    CHANNELS 6 Xposition Yposition Zposition Zrotation Xrotation Yrotation
                    JOINT LeftHandThumb1
                    {
                      OFFSET -0.500002 -1.49999 2.65
                      CHANNELS 6 Xposition Yposition Zposition Zrotation Xrotation Yrotation
                      JOINT LeftHandThumb2
                      {
                        OFFSET 0 -3.8 3.7
                        CHANNELS 6 Xposition Yposition Zposition Zrotation Xrotation Yrotation
                        JOINT LeftHandThumb3
                        {
                          OFFSET 0 -3 2.7
                          CHANNELS 6 Xposition Yposition Zposition Zrotation Xrotation Yrotation
                          End Site
                          {
                            OFFSET -1.21387e-05 -2.29999 1.79999
                          }
                        }
                      }
                    }
                    JOINT LeftHandIndex
                    {
                      OFFSET 0 -1.9 1.6
                      CHANNELS 6 Xposition Yposition Zposition Zrotation Xrotation Yrotation
                      JOINT LeftHandIndex1
                      {
                        OFFSET 0 -8.3 1.89999
                        CHANNELS 6 Xposition Yposition Zposition Zrotation Xrotation Yrotation
                        JOINT LeftHandIndex2
                        {
                          OFFSET -1.12986e-05 -4.5 0
                          CHANNELS 6 Xposition Yposition Zposition Zrotation Xrotation Yrotation
                          JOINT LeftHandIndex3
                          {
                            OFFSET 1.5026e-05 -3.4 0
                            CHANNELS 6 Xposition Yposition Zposition Zrotation Xrotation Yrotation
                            End Site
                            {
                              OFFSET 0 -2.6 0
                            }
                          }
                        }
                      }
                    }
                    JOINT LeftHandMiddle
                    {
                      OFFSET -0.250003 -2.2 0.399997
                      CHANNELS 6 Xposition Yposition Zposition Zrotation Xrotation Yrotation
                      JOINT LeftHandMiddle1
                      {
                        OFFSET 0 -8.3 1.00001
                        CHANNELS 6 Xposition Yposition Zposition Zrotation Xrotation Yrotation
                        JOINT LeftHandMiddle2
                        {
                          OFFSET 0 -4.65 0
                          CHANNELS 6 Xposition Yposition Zposition Zrotation Xrotation Yrotation
                          JOINT LeftHandMiddle3
                          {
                            OFFSET 0 -3.3 0
                            CHANNELS 6 Xposition Yposition Zposition Zrotation Xrotation Yrotation
                            End Site
                            {
                              OFFSET 0 -2.7 0
                            }
                          }
                        }
                      }
                    }
                    JOINT LeftHandRing
                    {
                      OFFSET -0.500009 -2.14999 -0.8
                      CHANNELS 6 Xposition Yposition Zposition Zrotation Xrotation Yrotation
                      JOINT LeftHandRing1
                      {
                        OFFSET 0 -7.75 -0.199997
                        CHANNELS 6 Xposition Yposition Zposition Zrotation Xrotation Yrotation
                        JOINT LeftHandRing2
                        {
                          OFFSET 0 -3.8 0
                          CHANNELS 6 Xposition Yposition Zposition Zrotation Xrotation Yrotation
                          JOINT LeftHandRing3
                          {
                            OFFSET 1.21201e-05 -3.4 0
                            CHANNELS 6 Xposition Yposition Zposition Zrotation Xrotation Yrotation
                            End Site
                            {
                              OFFSET 0 -2.60001 0
                            }
                          }
                        }
                      }
                    }
                    JOINT LeftHandPinky
                    {
                      OFFSET -0.749994 -1.75 -1.85
                      CHANNELS 6 Xposition Yposition Zposition Zrotation Xrotation Yrotation
                      JOINT LeftHandPinky1
                      {
                        OFFSET 0 -7.15 -1
                        CHANNELS 6 Xposition Yposition Zposition Zrotation Xrotation Yrotation
                        JOINT LeftHandPinky2
                        {
                          OFFSET 0 -3 0
                          CHANNELS 6 Xposition Yposition Zposition Zrotation Xrotation Yrotation
                          JOINT LeftHandPinky3
                          {
                            OFFSET 0 -2.34999 0
                            CHANNELS 6 Xposition Yposition Zposition Zrotation Xrotation Yrotation
                            End Site
                            {
                              OFFSET 0 -2.1 0
                            }
                          }
                        }
                      }
                    }
                  }
                }
              }
            }
          }
          JOINT RightShoulder
          {
            OFFSET -5.00011 17 -0.000138022
            CHANNELS 6 Xposition Yposition Zposition Zrotation Xrotation Yrotation
            JOINT RightShoulder2
            {
              OFFSET -6.5 0 0
              CHANNELS 6 Xposition Yposition Zposition Zrotation Xrotation Yrotation
              JOINT RightArm
              {
                OFFSET -6.49999 1.07465e-05 -3.00535e-05
                CHANNELS 6 Xposition Yposition Zposition Zrotation Xrotation Yrotation
                JOINT RightForeArm
                {
                  OFFSET 0 -37.9535 -2
                  CHANNELS 6 Xposition Yposition Zposition Zrotation Xrotation Yrotation
                  JOINT RightHand
                  {
                    OFFSET 0 -30.0465 2
                    CHANNELS 6 Xposition Yposition Zposition Zrotation Xrotation Yrotation
                    JOINT RightHandThumb1
                    {
                      OFFSET 0.500002 -1.50001 2.65
                      CHANNELS 6 Xposition Yposition Zposition Zrotation Xrotation Yrotation
                      JOINT RightHandThumb2
                      {
                        OFFSET 0 -3.8 3.7
                        CHANNELS 6 Xposition Yposition Zposition Zrotation Xrotation Yrotation
                        JOINT RightHandThumb3
                        {
                          OFFSET -1.58701e-05 -3.00001 2.70001
                          CHANNELS 6 Xposition Yposition Zposition Zrotation Xrotation Yrotation
                          End Site
                          {
                            OFFSET 0 -2.29999 1.79999
                          }
                        }
                      }
                    }
                    JOINT RightHandIndex
                    {
                      OFFSET 0 -1.9 1.6
                      CHANNELS 6 Xposition Yposition Zposition Zrotation Xrotation Yrotation
                      JOINT RightHandIndex1
                      {
                        OFFSET 0 -8.30001 1.89999
                        CHANNELS 6 Xposition Yposition Zposition Zrotation Xrotation Yrotation
                        JOINT RightHandIndex2
                        {
                          OFFSET 0 -4.50001 0
                          CHANNELS 6 Xposition Yposition Zposition Zrotation Xrotation Yrotation
                          JOINT RightHandIndex3
                          {
                            OFFSET 0 -3.4 0
                            CHANNELS 6 Xposition Yposition Zposition Zrotation Xrotation Yrotation
                            End Site
                            {
                              OFFSET 1.0738e-05 -2.59999 0
                            }
                          }
                        }
                      }
                    }
                    JOINT RightHandMiddle
                    {
                      OFFSET 0.249991 -2.2 0.400002
                      CHANNELS 6 Xposition Yposition Zposition Zrotation Xrotation Yrotation
                      JOINT RightHandMiddle1
                      {
                        OFFSET 1.215e-05 -8.29999 0.999994
                        CHANNELS 6 Xposition Yposition Zposition Zrotation Xrotation Yrotation
                        JOINT RightHandMiddle2
                        {
                          OFFSET 0 -4.65001 0
                          CHANNELS 6 Xposition Yposition Zposition Zrotation Xrotation Yrotation
                          JOINT RightHandMiddle3
                          {
                            OFFSET 0 -3.29999 0
                            CHANNELS 6 Xposition Yposition Zposition Zrotation Xrotation Yrotation
                            End Site
                            {
                              OFFSET 1.65007e-05 -2.70001 0
                            }
                          }
                        }
                      }
                    }
                    JOINT RightHandRing
                    {
                      OFFSET 0.500003 -2.15001 -0.799998
                      CHANNELS 6 Xposition Yposition Zposition Zrotation Xrotation Yrotation
                      JOINT RightHandRing1
                      {
                        OFFSET 0 -7.75 -0.200002
                        CHANNELS 6 Xposition Yposition Zposition Zrotation Xrotation Yrotation
                        JOINT RightHandRing2
                        {
                          OFFSET 0 -3.8 0
                          CHANNELS 6 Xposition Yposition Zposition Zrotation Xrotation Yrotation
                          JOINT RightHandRing3
                          {
                            OFFSET 0 -3.40001 0
                            CHANNELS 6 Xposition Yposition Zposition Zrotation Xrotation Yrotation
                            End Site
                            {
                              OFFSET 0 -2.6 0
                            }
                          }
                        }
                      }
                    }
                    JOINT RightHandPinky
                    {
                      OFFSET 0.749994 -1.75 -1.85
                      CHANNELS 6 Xposition Yposition Zposition Zrotation Xrotation Yrotation
                      JOINT RightHandPinky1
                      {
                        OFFSET 0 -7.15 -0.999999
                        CHANNELS 6 Xposition Yposition Zposition Zrotation Xrotation Yrotation
                        JOINT RightHandPinky2
                        {
                          OFFSET 0 -3.00001 0
                          CHANNELS 6 Xposition Yposition Zposition Zrotation Xrotation Yrotation
                          JOINT RightHandPinky3
                          {
                            OFFSET 0 -2.34999 0
                            CHANNELS 6 Xposition Yposition Zposition Zrotation Xrotation Yrotation
                            End Site
                            {
                              OFFSET 0 -2.09999 0
                            }
                          }
                        }
                      }
                    }
                  }
                }
              }
            }
          }
        }
      }
    }
  }
  JOINT LeftUpLeg
  {
    OFFSET 10 0 0
    CHANNELS 6 Xposition Yposition Zposition Zrotation Xrotation Yrotation
    JOINT LeftLeg
    {
      OFFSET 0 -49.4477 -0.999998
      CHANNELS 6 Xposition Yposition Zposition Zrotation Xrotation Yrotation
      JOINT LeftFoot
      {
        OFFSET 0 -45.0524 -2
        CHANNELS 6 Xposition Yposition Zposition Zrotation Xrotation Yrotation
        JOINT LeftToeBase
        {
          OFFSET 0 -7.5 12.5
          CHANNELS 6 Xposition Yposition Zposition Zrotation Xrotation Yrotation
          JOINT LeftFootToe
          {
            OFFSET 0 0 4
            CHANNELS 6 Xposition Yposition Zposition Zrotation Xrotation Yrotation
            End Site
            {
              OFFSET 0 0 0
            }
          }
        }
      }
    }
  }
  JOINT RightUpLeg
  {
    OFFSET -10 0 0
    CHANNELS 6 Xposition Yposition Zposition Zrotation Xrotation Yrotation
    JOINT RightLeg
    {
      OFFSET 1.35724e-05 -49.4477 -0.999996
      CHANNELS 6 Xposition Yposition Zposition Zrotation Xrotation Yrotation
      JOINT RightFoot
      {
        OFFSET 1.20461e-05 -45.0524 -2
        CHANNELS 6 Xposition Yposition Zposition Zrotation Xrotation Yrotation
        JOINT RightToeBase
        {
          OFFSET 0 -7.5 12.5
          CHANNELS 6 Xposition Yposition Zposition Zrotation Xrotation Yrotation
          JOINT RightFootToe
          {
            OFFSET 0 0 4
            CHANNELS 6 Xposition Yposition Zposition Zrotation Xrotation Yrotation
            End Site
            {
              OFFSET 0 0 0
            }
          }
        }
      }
    }
  }
}
MOTION
Frames:	3
Frame Time:	0.0111111
229.134 93.8628 -33.1057 21.001 6.41231 -41.8713 -2.84217e-14 6.79575 0 3.09222 23.0993 4.85452 2.84217e-14 6.79575 0 6.18747 13.3421 4.09237 2.84217e-14 6.79575 -1.42109e-14 0.260031 7.6998 5.96914 2.84217e-14 6.79575 0 0.608665 11.6046 1.87427 2.84217e-14 14.441 1.42109e-14 -7.17024 -3.24048 2.19545 2.84217e-14 9.17427 -7.10543e-15 -16.6604 -7.97097 4.4905 5 17 1.42109e-14 0.00374777 -0.00826857 -0.984258 6.5 1.42109e-14 -7.10543e-15 0.00169787 -0.00667221 -0.982774 6.5 0 1.42109e-14 2.62513 -5.10784 -2.78949 0 -37.9535 -2 -25.3783 -54.4701 -14.7531 -2.84217e-14 -30.0465 2 16.7124 -0.631719 -34.3768 -0.5 -1.5 2.65 2.52044 -5.27926 10.0474 1.42109e-14 -3.8 3.7 0.0937592 0.835453 -0.00743924 -1.42109e-14 -3 2.7 0.0178464 8.29733 -0.0211708 1.42109e-14 -1.9 1.6 4.77083e-15 7.95139e-16 -6.36111e-15 0 -8.3 1.9 -1.86169 -6.38092 -0.0799209 0 -4.5 0 -0.000353395 0.00565485 1.15726e-05 -1.42109e-14 -3.4 0 7.34292e-07 0.00558017 3.13997e-06 -0.25 -2.2 0.4 4.77083e-15 7.95139e-16 -6.36111e-15 -1.42109e-14 -8.3 1 -3.08481 -7.18947 -0.114862 0 -4.65 2.84217e-14 -8.27483e-05 -1.20304e-05 6.31966e-06 1.42109e-14 -3.3 -2.84217e-14 4.4378e-06 4.51688e-06 -8.71344e-07 -0.5 -2.15 -0.8 4.77083e-15 7.95139e-16 -6.36111e-15 1.42109e-14 -7.75 -0.2 -7.54804 -3.84506 -0.115064 0 -3.8 0 -2.20094e-05 2.14769e-06 3.07291e-07 0 -3.4 2.84217e-14 -4.32701e-06 5.635e-06 3.47641e-06 -0.75 -1.75 -1.85 4.77083e-15 7.95139e-16 -6.36111e-15 0 -7.15 -1 -3.12473 -14.1948 0.0766149 -1.42109e-14 -3 0 -2.26434 -0.00465241 -0.0727279 0 -2.35 -5.68434e-14 -2.19584 -0.05279 0.00289394 -5 17 7.10543e-15 0.0172064 0.00103394 6.75144 -6.5 0 1.42109e-14 0.000944347 -0.00335056 6.75193 -6.5 0 3.55271e-15 -49.276 -26.4135 -4.83988 2.84217e-14 -37.9535 -2 -2.92912 -7.1092 26.5467 -2.84217e-14 -30.0465 2 -15.8085 -1.68468 45.7767 0.5 -1.5 2.65 2.72975 13.4168 4.79867 0 -3.8 3.7 0.380366 0.0740003 -0.133133 0 -3 2.7 0.0415693 -2.51941 -0.0296456 0 -1.9 1.6 2.46389e-06 -1.02127e-05 1.64237e-06 -1.42109e-14 -8.3 1.9 0.0419579 1.5556 -0.00377671 7.10543e-15 -4.5 0 1.68908 0.0113677 0.00632904 0 -3.4 0 1.64158 0.011031 -0.0124798 0.25 -2.2 0.4 2.46389e-06 -1.02127e-05 1.64237e-06 0 -8.3 1 2.89247 0.427456 -0.0196649 0 -4.65 2.84217e-14 0.118655 -0.000789849 0.000852787 7.10543e-15 -3.3 0 -0.00043706 0.00167217 0.00275087 0.5 -2.15 -0.8 2.46389e-06 -1.02127e-05 1.64237e-06 -7.10543e-15 -7.75 -0.2 1.58329 -5.07842 0.0286886 0 -3.8 0 0.0731376 0.0031002 0.00115621 0 -3.4 0 0.00946798 0.376162 -0.00121671 0.75 -1.75 -1.85 2.46389e-06 -1.02127e-05 1.64237e-06 0 -7.15 -1 5.96237 -1.29137 -0.449086 0 -3 0 6.17986e-06 -0.00205361 -0.00238861 1.42109e-14 -2.35 -2.84217e-14 -7.79397e-06 -0.00180145 -0.00215921 10 -5.77316e-15 0 -52.9225 -61.217 -47.8158 -1.42109e-14 -49.4477 -1 -2.16044 50.9517 -1.18499 0 -45.0523 -2 8.00577 -1.73004 34.7141 0 -7.5 12.5 -3.30998e-06 1.14338e-06 2.19639e-08 -2.84217e-14 1.77636e-15 4 1.78034 -1.82501 -0.0699081 -10 -8.88178e-15 -2.84217e-14 -35.0135 -51.0742 -34.7376 -1.42109e-14 -49.4477 -1 -0.185499 44.1792 0.524917 0 -45.0523 -2 1.87978 -6.88321 38.8529 2.84217e-14 -7.5 12.5 -9.92324e-16 0.0141894 3.18055e-15 0 -6.93889e-18 4 -0.638035 9.01558 -0.00215461 
228.876 94.0554 -33.1453 20.7031 6.36184 -41.6366 0 6.79575 0 2.9665 22.8309 4.9467 0 6.79575 2.84217e-14 6.13826 13.1683 4.08351 5.68434e-14 6.79575 0 0.221305 7.66421 5.98276 0 6.79575 0 0.531921 11.5616 1.88784 0 14.441 7.10543e-15 -7.2226 -3.04075 2.55678 0 9.17427 7.10543e-15 -16.7557 -7.57908 5.36794 5 17 -7.10543e-15 0.00375436 -0.00826868 -0.938617 6.5 0 -7.10543e-15 0.00222429 -0.00667015 -0.938611 6.5 -1.42109e-14 1.42109e-14 2.47929 -4.9553 -2.66836 0 -37.9535 -2 -25.0947 -54.1419 -14.5197 0 -30.0465 2 16.4242 -0.635249 -34.2188 -0.5 -1.5 2.65 2.66716 -5.42102 10.1043 0 -3.8 3.7 0.0912883 0.864624 -0.00759249 -1.42109e-14 -3 2.7 0.0178546 8.22623 -0.0211536 0 -1.9 1.6 1.43125e-14 3.18055e-15 -6.36111e-15 0 -8.3 1.9 -1.75351 -6.37236 -0.0740595 1.42109e-14 -4.5 -2.84217e-14 -0.000353395 0.00565485 1.15726e-05 1.42109e-14 -3.4 0 7.34292e-07 0.00558017 3.13997e-06 -0.25 -2.2 0.4 1.43125e-14 3.18055e-15 -6.36111e-15 -1.42109e-14 -8.3 1 -3.06888 -7.20717 -0.114493 0 -4.65 2.84217e-14 -8.27483e-05 -1.20304e-05 6.31966e-06 0 -3.3 -2.84217e-14 4.4378e-06 4.51688e-06 -8.71344e-07 -0.5 -2.15 -0.8 1.43125e-14 3.18055e-15 -6.36111e-15 1.42109e-14 -7.75 -0.2 -7.4944 -3.90907 -0.117188 0 -3.8 2.84217e-14 -2.20094e-05 2.14769e-06 3.07291e-07 0 -3.4 0 -4.32701e-06 5.635e-06 3.47641e-06 -0.75 -1.75 -1.85 1.43125e-14 3.18055e-15 -6.36111e-15 -1.42109e-14 -7.15 -1 -3.14383 -14.2339 0.0761764 -1.42109e-14 -3 5.68434e-14 -2.24793 -0.00465833 -0.0724857 -1.42109e-14 -2.35 0 -2.18043 -0.0527899 0.00287935 -5 17 1.42109e-14 0.0172969 0.000990703 6.6415 -6.5 0 0 0.000945235 -0.00333479 6.64204 -6.5 -2.84217e-14 1.24345e-14 -48.9297 -25.9889 -4.96323 -2.84217e-14 -37.9535 -2 -2.25716 -8.15913 26.135 2.84217e-14 -30.0465 2 -15.1159 -1.0245 45.8733 0.5 -1.5 2.65 2.55929 12.5997 4.47989 0 -3.8 3.7 0.376175 0.430691 -0.12365 7.10543e-15 -3 2.7 0.0471999 -2.37776 -0.0274764 0 -1.9 1.6 2.46389e-06 -1.02127e-05 1.64237e-06 -1.42109e-14 -8.3 1.9 0.0507713 1.69553 -0.00373104 0 -4.5 0 1.51404 0.0150208 0.00634783 -7.10543e-15 -3.4 -2.84217e-14 1.47215 0.0145615 -0.0124966 0.25 -2.2 0.4 2.46389e-06 -1.02127e-05 1.64237e-06 7.10543e-15 -8.3 1 2.60494 0.452753 -0.0163307 1.42109e-14 -4.65 -2.84217e-14 0.118658 -0.000789849 0.000852787 0 -3.3 2.84217e-14 -0.000434472 0.00167217 0.00275087 0.5 -2.15 -0.8 2.46389e-06 -1.02127e-05 1.64237e-06 0 -7.75 -0.2 1.32155 -5.0266 0.0201217 7.10543e-15 -3.8 2.84217e-14 0.0731376 0.0031002 0.00115621 0 -3.4 0 0.00946798 0.376175 -0.00121671 0.75 -1.75 -1.85 2.46389e-06 -1.02127e-05 1.64237e-06 0 -7.15 -1 5.65183 -0.947016 -0.428296 0 -3 2.84217e-14 6.17986e-06 -0.00205361 -0.00238861 0 -2.35 2.84217e-14 -7.79397e-06 -0.00180145 -0.00215921 10 -2.66454e-15 0 -52.0562 -61.0666 -46.9624 1.42109e-14 -49.4477 -1 -2.04065 51.1224 -1.40926 1.42109e-14 -45.0523 -2 8.02041 -2.01442 34.682 0 -7.5 12.5 -3.30998e-06 1.15471e-06 2.19639e-08 0 1.77636e-15 4 1.99628 -1.87193 -0.0775719 -10 -1.15463e-14 0 -34.2931 -50.5247 -34.1791 0 -49.4477 -1 -0.148918 43.7204 0.428451 1.42109e-14 -45.0523 -2 1.83207 -6.83114 38.7513 0 -7.5 12.5 -9.94114e-16 0.000891899 -1.27222e-14 0 0 4 -0.509075 8.92692 -0.00210233 
228.595 94.2552 -33.2024 20.3989 6.3014 -41.3798 0 6.79575 2.84217e-14 2.84768 22.5628 5.03451 2.84217e-14 6.79575 0 6.06323 12.9491 4.08893 0 6.79575 0 0.186194 7.63254 5.99548 -2.84217e-14 6.79575 0 0.47155 11.5421 1.89984 -2.84217e-14 14.441 0 -7.26531 -2.83678 2.9155 0 9.17427 7.10543e-15 -16.8326 -7.17704 6.24083 5 17 -1.42109e-14 0.00376161 -0.0082688 -0.888401 6.5 -2.84217e-14 -7.10543e-15 0.00269496 -0.0066681 -0.889138 6.5 0 0 2.32852 -4.78406 -2.54008 5.68434e-14 -37.9535 -2 -24.7882 -53.8159 -14.3084 0 -30.0465 2 16.1212 -0.63485 -34.0681 -0.5 -1.5 2.65 2.83702 -5.54923 10.1781 2.84217e-14 -3.8 3.7 0.0883596 0.874474 -0.00774394 1.42109e-14 -3 2.7 0.0178592 8.14596 -0.0211342 -1.42109e-14 -1.9 1.6 1.27222e-14 -1.59028e-15 -3.18055e-15 -1.42109e-14 -8.3 1.9 -1.65619 -6.37431 -0.0687112 1.42109e-14 -4.5 2.84217e-14 -0.000353395 0.00565485 1.15726e-05 -1.42109e-14 -3.4 0 7.34292e-07 0.00558017 3.13997e-06 -0.25 -2.2 0.4 1.27222e-14 -1.59028e-15 -3.18055e-15 0 -8.3 1 -3.04389 -7.2185 -0.11409 0 -4.65 2.84217e-14 -8.27483e-05 -1.20304e-05 6.31966e-06 0 -3.3 2.84217e-14 4.4378e-06 4.51688e-06 -8.71344e-07 -0.5 -2.15 -0.8 1.27222e-14 -1.59028e-15 -3.18055e-15 0 -7.75 -0.2 -7.44172 -3.95841 -0.118341 0 -3.8 2.84217e-14 -2.20094e-05 2.14769e-06 3.07291e-07 0 -3.4 0 -4.32701e-06 5.635e-06 3.47641e-06 -0.75 -1.75 -1.85 1.27222e-14 -1.59028e-15 -3.18055e-15 -1.42109e-14 -7.15 -1 -3.15799 -14.2631 0.0757227 0 -3 0 -2.23578 -0.00466397 -0.0722441 -1.42109e-14 -2.35 0 -2.16903 -0.0527882 0.00286475 -5 17 0 0.0173784 0.000944788 6.52984 -6.5 -1.42109e-14 1.42109e-14 0.000945713 -0.00331952 6.52993 -6.5 1.42109e-14 -7.10543e-15 -48.5191 -25.57 -5.11191 0 -37.9535 -2 -1.6319 -9.15026 25.6478 -2.84217e-14 -30.0465 2 -14.545 -0.369812 45.8028 0.5 -1.5 2.65 2.32349 11.4797 4.09491 -7.10543e-15 -3.8 3.7 0.346095 0.975108 -0.112064 0 -3 2.7 0.0433308 -2.19491 -0.0241027 -1.42109e-14 -1.9 1.6 2.46389e-06 -1.02127e-05 1.64237e-06 0 -8.3 1.9 0.0582003 1.83616 -0.003686 0 -4.5 0 1.28989 0.0176163 0.00636662 0 -3.4 0 1.25513 0.0170951 -0.0125135 0.25 -2.2 0.4 2.46389e-06 -1.02127e-05 1.64237e-06 0 -8.3 1 2.39195 0.526886 -0.0157759 1.42109e-14 -4.65 2.84217e-14 0.118661 -0.000789849 0.000852787 -1.42109e-14 -3.3 2.84217e-14 -0.000431779 0.00167217 0.00275087 0.5 -2.15 -0.8 2.46389e-06 -1.02127e-05 1.64237e-06 0 -7.75 -0.2 1.13112 -4.94829 0.0127424 0 -3.8 0 0.0731376 0.0031002 0.00115621 0 -3.4 0 0.00946798 0.376189 -0.00121671 0.75 -1.75 -1.85 2.46389e-06 -1.02127e-05 1.64237e-06 0 -7.15 -1 5.24081 -0.281305 -0.379827 0 -3 0 6.17986e-06 -0.00205361 -0.00238861 0 -2.35 0 -7.79397e-06 -0.00180145 -0.00215921 10 -5.32907e-15 2.84217e-14 -51.1817 -60.8923 -46.0947 -1.42109e-14 -49.4477 -1 -1.92467 51.313 -1.62922 0 -45.0523 -2 8.07565 -2.35345 34.6411 2.84217e-14 -7.5 12.5 -3.30998e-06 1.16585e-06 2.19639e-08 0 -1.77636e-15 4 2.20474 -1.89391 -0.0871932 -10 5.32907e-15 0 -33.5783 -49.9423 -33.638 1.42109e-14 -49.4477 -1 -0.105745 43.2462 0.311976 -1.42109e-14 -45.0523 -2 1.78048 -6.78806 38.6577 2.84217e-14 -7.5 12.5 -9.93923e-16 -8.91298e-09 -3.18055e-15 2.84217e-14 0 4 -0.362669 8.82686 -0.00206804 
